<?xml version="1.0" encoding="UTF-8" standalone="no"?>
<!--
SPDX-License-Identifier: CC0-1.0
SPDX-FileCopyrightText: Jakub Steiner <jimmac@gmail.com>
SPDX-FileComment: From https://gitlab.gnome.org/Teams/Design/icon-development-kit
-->

<svg
   height="16px"
   viewBox="0 0 16 16"
   width="16px"
   version="1.1"
   id="svg1015"
   sodipodi:docname="cloud-outline-thin-symbolic.svg"
   inkscape:version="1.1 (c68e22c387, 2021-05-23)"
   xmlns:inkscape="http://www.inkscape.org/namespaces/inkscape"
   xmlns:sodipodi="http://sodipodi.sourceforge.net/DTD/sodipodi-0.dtd"
   xmlns="http://www.w3.org/2000/svg"
   xmlns:svg="http://www.w3.org/2000/svg">
  <defs
     id="defs1019" />
  <sodipodi:namedview
     id="namedview1017"
     pagecolor="#ffffff"
     bordercolor="#666666"
     borderopacity="1.0"
     inkscape:pageshadow="2"
     inkscape:pageopacity="0.0"
     inkscape:pagecheckerboard="0"
     showgrid="false"
     inkscape:zoom="46.125"
     inkscape:cx="7.9891599"
     inkscape:cy="8"
     inkscape:window-width="1920"
     inkscape:window-height="947"
     inkscape:window-x="0"
     inkscape:window-y="27"
     inkscape:window-maximized="1"
     inkscape:current-layer="svg1015" />
  <filter
     id="a"
     height="1"
     width="1"
     x="0"
     y="0">
    <feColorMatrix
       in="SourceGraphic"
       type="matrix"
       values="0 0 0 0 1 0 0 0 0 1 0 0 0 0 1 0 0 0 1 0"
       id="feColorMatrix854" />
  </filter>
  <mask
     id="b">
    <g
       filter="url(#a)"
       id="g859">
      <path
         d="m 0 0 h 16 v 16 h -16 z"
         fill-opacity="0.3"
         id="path857" />
    </g>
  </mask>
  <clipPath
     id="c">
    <path
       d="m 0 0 h 1024 v 800 h -1024 z"
       id="path862" />
  </clipPath>
  <mask
     id="d">
    <g
       filter="url(#a)"
       id="g867">
      <path
         d="m 0 0 h 16 v 16 h -16 z"
         fill-opacity="0.05"
         id="path865" />
    </g>
  </mask>
  <clipPath
     id="e">
    <path
       d="m 0 0 h 1024 v 800 h -1024 z"
       id="path870" />
  </clipPath>
  <mask
     id="f">
    <g
       filter="url(#a)"
       id="g875">
      <path
         d="m 0 0 h 16 v 16 h -16 z"
         fill-opacity="0.05"
         id="path873" />
    </g>
  </mask>
  <clipPath
     id="g">
    <path
       d="m 0 0 h 1024 v 800 h -1024 z"
       id="path878" />
  </clipPath>
  <mask
     id="h">
    <g
       filter="url(#a)"
       id="g883">
      <path
         d="m 0 0 h 16 v 16 h -16 z"
         fill-opacity="0.05"
         id="path881" />
    </g>
  </mask>
  <clipPath
     id="i">
    <path
       d="m 0 0 h 1024 v 800 h -1024 z"
       id="path886" />
  </clipPath>
  <mask
     id="j">
    <g
       filter="url(#a)"
       id="g891">
      <path
         d="m 0 0 h 16 v 16 h -16 z"
         fill-opacity="0.05"
         id="path889" />
    </g>
  </mask>
  <clipPath
     id="k">
    <path
       d="m 0 0 h 1024 v 800 h -1024 z"
       id="path894" />
  </clipPath>
  <mask
     id="l">
    <g
       filter="url(#a)"
       id="g899">
      <path
         d="m 0 0 h 16 v 16 h -16 z"
         fill-opacity="0.05"
         id="path897" />
    </g>
  </mask>
  <clipPath
     id="m">
    <path
       d="m 0 0 h 1024 v 800 h -1024 z"
       id="path902" />
  </clipPath>
  <mask
     id="n">
    <g
       filter="url(#a)"
       id="g907">
      <path
         d="m 0 0 h 16 v 16 h -16 z"
         fill-opacity="0.05"
         id="path905" />
    </g>
  </mask>
  <clipPath
     id="o">
    <path
       d="m 0 0 h 1024 v 800 h -1024 z"
       id="path910" />
  </clipPath>
  <mask
     id="p">
    <g
       filter="url(#a)"
       id="g915">
      <path
         d="m 0 0 h 16 v 16 h -16 z"
         fill-opacity="0.3"
         id="path913" />
    </g>
  </mask>
  <clipPath
     id="q">
    <path
       d="m 0 0 h 1024 v 800 h -1024 z"
       id="path918" />
  </clipPath>
  <mask
     id="r">
    <g
       filter="url(#a)"
       id="g923">
      <path
         d="m 0 0 h 16 v 16 h -16 z"
         fill-opacity="0.5"
         id="path921" />
    </g>
  </mask>
  <clipPath
     id="s">
    <path
       d="m 0 0 h 1024 v 800 h -1024 z"
       id="path926" />
  </clipPath>
  <mask
     id="t">
    <g
       filter="url(#a)"
       id="g931">
      <path
         d="m 0 0 h 16 v 16 h -16 z"
         fill-opacity="0.4"
         id="path929" />
    </g>
  </mask>
  <clipPath
     id="u">
    <path
       d="m 0 0 h 1024 v 800 h -1024 z"
       id="path934" />
  </clipPath>
  <mask
     id="v">
    <g
       filter="url(#a)"
       id="g939">
      <path
         d="m 0 0 h 16 v 16 h -16 z"
         fill-opacity="0.4"
         id="path937" />
    </g>
  </mask>
  <clipPath
     id="w">
    <path
       d="m 0 0 h 1024 v 800 h -1024 z"
       id="path942" />
  </clipPath>
  <mask
     id="x">
    <g
       filter="url(#a)"
       id="g947">
      <path
         d="m 0 0 h 16 v 16 h -16 z"
         fill-opacity="0.5"
         id="path945" />
    </g>
  </mask>
  <clipPath
     id="y">
    <path
       d="m 0 0 h 1024 v 800 h -1024 z"
       id="path950" />
  </clipPath>
  <mask
     id="z">
    <g
       filter="url(#a)"
       id="g955">
      <path
         d="m 0 0 h 16 v 16 h -16 z"
         fill-opacity="0.5"
         id="path953" />
    </g>
  </mask>
  <clipPath
     id="A">
    <path
       d="m 0 0 h 1024 v 800 h -1024 z"
       id="path958" />
  </clipPath>
  <path
     d="m 10 3 c -1.5625 0.003906 -2.980469 0.914062 -3.632812 2.332031 c -0.421876 -0.21875 -0.890626 -0.332031 -1.367188 -0.332031 c -1.65625 0 -3 1.34375 -3 3 c 0 0.347656 0.0625 0.695312 0.183594 1.019531 c -1.246094 0.160157 -2.183594 1.222657 -2.183594 2.480469 c 0 1.378906 1.121094 2.5 2.5 2.5 h 10.5 c 1.65625 0 3 -1.34375 3 -3 c 0 -1.332031 -0.882812 -2.507812 -2.164062 -2.878906 c 0.109374 -0.363282 0.164062 -0.742188 0.164062 -1.121094 c 0 -2.210938 -1.789062 -4 -4 -4 z m 0 1 h 0.003906 c 1.664063 0 2.996094 1.332031 2.996094 3 c 0 0.285156 -0.042969 0.566406 -0.121094 0.839844 l -0.28125 0.960937 l 0.960938 0.28125 c 0.859375 0.25 1.441406 1.023438 1.441406 1.917969 c 0 1.117188 -0.882812 2 -2 2 h -10.5 c -0.839844 0 -1.5 -0.660156 -1.5 -1.5 c 0 -0.761719 0.554688 -1.390625 1.3125 -1.488281 l 1.242188 -0.15625 l -0.429688 -1.179688 c -0.082031 -0.21875 -0.125 -0.445312 -0.125 -0.675781 c 0 -1.117188 0.882812 -2 2 -2 c 0.316406 0 0.628906 0.074219 0.914062 0.21875 l 0.929688 0.480469 l 0.433594 -0.949219 c 0.488281 -1.066406 1.550781 -1.746094 2.722656 -1.75 z m 0 0"
     fill="currentColor"
     id="path961" />
  <g
     clip-path="url(#c)"
     mask="url(#b)"
     transform="matrix(1 0 0 1 -540 -460)"
     id="g965">
    <path
       d="m 562.460938 212.058594 h 10.449218 c -1.183594 0.492187 -1.296875 2.460937 0 3 h -10.449218 z m 0 0"
       fill="currentColor"
       id="path963" />
  </g>
  <g
     clip-path="url(#e)"
     mask="url(#d)"
     transform="matrix(1 0 0 1 -540 -460)"
     id="g969">
    <path
       d="m 16 632 h 1 v 1 h -1 z m 0 0"
       fill="currentColor"
       fill-rule="evenodd"
       id="path967" />
  </g>
  <g
     clip-path="url(#g)"
     mask="url(#f)"
     transform="matrix(1 0 0 1 -540 -460)"
     id="g973">
    <path
       d="m 17 631 h 1 v 1 h -1 z m 0 0"
       fill="currentColor"
       fill-rule="evenodd"
       id="path971" />
  </g>
  <g
     clip-path="url(#i)"
     mask="url(#h)"
     transform="matrix(1 0 0 1 -540 -460)"
     id="g977">
    <path
       d="m 18 634 h 1 v 1 h -1 z m 0 0"
       fill="currentColor"
       fill-rule="evenodd"
       id="path975" />
  </g>
  <g
     clip-path="url(#k)"
     mask="url(#j)"
     transform="matrix(1 0 0 1 -540 -460)"
     id="g981">
    <path
       d="m 16 634 h 1 v 1 h -1 z m 0 0"
       fill="currentColor"
       fill-rule="evenodd"
       id="path979" />
  </g>
  <g
     clip-path="url(#m)"
     mask="url(#l)"
     transform="matrix(1 0 0 1 -540 -460)"
     id="g985">
    <path
       d="m 17 635 h 1 v 1 h -1 z m 0 0"
       fill="currentColor"
       fill-rule="evenodd"
       id="path983" />
  </g>
  <g
     clip-path="url(#o)"
     mask="url(#n)"
     transform="matrix(1 0 0 1 -540 -460)"
     id="g989">
    <path
       d="m 19 635 h 1 v 1 h -1 z m 0 0"
       fill="currentColor"
       fill-rule="evenodd"
       id="path987" />
  </g>
  <g
     clip-path="url(#q)"
     mask="url(#p)"
     transform="matrix(1 0 0 1 -540 -460)"
     id="g993">
    <path
       d="m 136 660 v 7 h 7 v -7 z m 0 0"
       fill="currentColor"
       id="path991" />
  </g>
  <g
     clip-path="url(#s)"
     mask="url(#r)"
     transform="matrix(1 0 0 1 -540 -460)"
     id="g997">
    <path
       d="m 199 642 h 3 v 12 h -3 z m 0 0"
       fill="currentColor"
       id="path995" />
  </g>
  <g
     clip-path="url(#u)"
     mask="url(#t)"
     transform="matrix(1 0 0 1 -540 -460)"
     id="g1001">
    <path
       d="m 209.5 144.160156 c 0.277344 0 0.5 0.222656 0.5 0.5 v 1 c 0 0.277344 -0.222656 0.5 -0.5 0.5 s -0.5 -0.222656 -0.5 -0.5 v -1 c 0 -0.277344 0.222656 -0.5 0.5 -0.5 z m 0 0"
       fill="currentColor"
       id="path999" />
  </g>
  <g
     clip-path="url(#w)"
     mask="url(#v)"
     transform="matrix(1 0 0 1 -540 -460)"
     id="g1005">
    <path
       d="m 206.5 144.160156 c 0.277344 0 0.5 0.222656 0.5 0.5 v 1 c 0 0.277344 -0.222656 0.5 -0.5 0.5 s -0.5 -0.222656 -0.5 -0.5 v -1 c 0 -0.277344 0.222656 -0.5 0.5 -0.5 z m 0 0"
       fill="currentColor"
       id="path1003" />
  </g>
  <g
     clip-path="url(#y)"
     mask="url(#x)"
     transform="matrix(1 0 0 1 -540 -460)"
     id="g1009">
    <path
       d="m 229.5 143.160156 c -0.546875 0 -1 0.457032 -1 1 c 0 0.546875 0.453125 1 1 1 s 1 -0.453125 1 -1 c 0 -0.542968 -0.453125 -1 -1 -1 z m 0 0"
       fill="currentColor"
       id="path1007" />
  </g>
  <g
     clip-path="url(#A)"
     mask="url(#z)"
     transform="matrix(1 0 0 1 -540 -460)"
     id="g1013">
    <path
       d="m 226.453125 143.160156 c -0.519531 0 -0.953125 0.433594 -0.953125 0.953125 v 0.09375 c 0 0.519531 0.433594 0.953125 0.953125 0.953125 h 0.09375 c 0.519531 0 0.953125 -0.433594 0.953125 -0.953125 v -0.09375 c 0 -0.519531 -0.433594 -0.953125 -0.953125 -0.953125 z m 0 0"
       fill="currentColor"
       id="path1011" />
  </g>
</svg>
